<svg width="32" height="32" viewBox="0 0 32 32" fill="none" xmlns="http://www.w3.org/2000/svg">
<path d="M17.1133 4.21466C17.1869 4.15772 17.2528 4.09138 17.3093 4.01733H20.7253L20.772 4.016C21.014 4.00279 21.2566 4.00279 21.4986 4.016H21.5493C22.3085 4.0135 23.0585 4.18164 23.744 4.508C24.9966 4.99977 26.0801 5.84347 26.864 6.93733C27.4577 7.7655 27.8616 8.71436 28.0468 9.71638C28.2321 10.7184 28.1943 11.7489 27.9359 12.7347L23.5613 8.41866C23.374 8.234 23.1216 8.13053 22.8586 8.13066H16.492C16.2877 8.13897 16.0908 8.2097 15.9279 8.33333L13.4159 10.2373C13.1432 10.4446 12.7993 10.5351 12.4599 10.4891C12.1204 10.4431 11.8131 10.2643 11.6053 9.992C11.5028 9.85925 11.4276 9.70747 11.3842 9.54546C11.3409 9.38345 11.3301 9.21443 11.3525 9.04822C11.375 8.88201 11.4302 8.72191 11.515 8.57722C11.5998 8.43253 11.7126 8.30612 11.8466 8.20533L17.1133 4.21466ZM10.5319 18.98L10.5133 18.9973L9.21462 20.288L9.19728 20.304C8.96985 20.5203 8.66719 20.6395 8.35338 20.6365C8.03956 20.6335 7.73922 20.5085 7.51595 20.288C7.40408 20.1776 7.31525 20.0461 7.25463 19.9011C7.194 19.7561 7.16278 19.6005 7.16278 19.4433C7.16278 19.2862 7.194 19.1306 7.25463 18.9856C7.31525 18.8406 7.40408 18.7091 7.51595 18.5987L8.81462 17.308C9.04081 17.084 9.34628 16.9583 9.66462 16.9583C9.98295 16.9583 10.2884 17.084 10.5146 17.308C10.7376 17.528 10.8645 17.8272 10.8678 18.1404C10.871 18.4536 10.7503 18.7554 10.5319 18.98ZM10.1439 21.244C9.92559 21.4686 9.80486 21.7704 9.80811 22.0836C9.81136 22.3968 9.93831 22.696 10.1613 22.916C10.6306 23.3827 11.3919 23.3827 11.8613 22.916L13.1599 21.6253C13.2858 21.5005 13.3822 21.3491 13.4421 21.1822C13.5019 21.0153 13.5237 20.8372 13.5058 20.6608C13.4879 20.4844 13.4308 20.3142 13.3386 20.1628C13.2465 20.0113 13.1217 19.8823 12.9733 19.7853C12.7455 19.6354 12.4737 19.567 12.202 19.5912C11.9304 19.6155 11.675 19.7308 11.4773 19.9187L11.4599 19.9373L10.1613 21.2267L10.1439 21.244ZM7.33328 15.2093C7.44515 15.3197 7.53398 15.4512 7.59461 15.5962C7.65523 15.7412 7.68645 15.8968 7.68645 16.054C7.68645 16.2112 7.65523 16.3668 7.59461 16.5118C7.53398 16.6568 7.44515 16.7883 7.33328 16.8987L6.03462 18.1893C5.80842 18.4133 5.50295 18.539 5.18462 18.539C4.86628 18.539 4.56081 18.4133 4.33462 18.1893C4.22275 18.0789 4.13392 17.9474 4.07329 17.8024C4.01267 17.6574 3.98145 17.5018 3.98145 17.3447C3.98145 17.1875 4.01267 17.0319 4.07329 16.8869C4.13392 16.7419 4.22275 16.6104 4.33462 16.5L5.63328 15.2093C5.85948 14.9853 6.16495 14.8597 6.48328 14.8597C6.80162 14.8597 7.10709 14.9853 7.33328 15.2093ZM15.8039 22.5653C15.9158 22.6757 16.0046 22.8072 16.0653 22.9522C16.1259 23.0972 16.1571 23.2528 16.1571 23.41C16.1571 23.5672 16.1259 23.7228 16.0653 23.8678C16.0046 24.0128 15.9158 24.1443 15.8039 24.2547L14.5053 25.5453C14.2791 25.7693 13.9736 25.895 13.6553 25.895C13.3369 25.895 13.0315 25.7693 12.8053 25.5453C12.6278 25.37 12.5102 25.1431 12.469 24.8971C12.4278 24.651 12.4652 24.3982 12.5759 24.1747L12.5773 24.172C12.6356 24.0549 12.7126 23.9482 12.8053 23.856L14.1039 22.5653C14.3301 22.3413 14.6356 22.2157 14.9539 22.2157C15.2723 22.2157 15.5778 22.3413 15.8039 22.5653ZM7.12528 6.44C8.01065 5.56053 9.0842 4.89365 10.2649 4.48968C11.4457 4.0857 12.7027 3.95519 13.9413 4.108L10.6399 6.61066C10.2958 6.8706 10.0065 7.19611 9.78879 7.56842C9.57108 7.94073 9.42925 8.35247 9.37148 8.77988C9.31372 9.20729 9.34116 9.64191 9.45223 10.0587C9.5633 10.4754 9.7558 10.866 10.0186 11.208C10.5486 11.8988 11.3302 12.3519 12.1929 12.4685C13.0557 12.5852 13.9296 12.3559 14.624 11.8307L16.8693 10.1307H22.4493L27.1253 14.744L27.1733 14.7973L28.7066 16.3307C29.0515 16.6804 29.2492 17.1491 29.2589 17.6402C29.2685 18.1313 29.0895 18.6074 28.7586 18.9704C28.4277 19.3335 27.9701 19.5558 27.4802 19.5915C26.9903 19.6273 26.5054 19.4738 26.1253 19.1627L25.9973 19.0347L25.9173 18.9653L24.4599 17.5093C24.3985 17.4457 24.3249 17.3949 24.2436 17.3599C24.1622 17.325 24.0747 17.3066 23.9862 17.3058C23.8977 17.3051 23.8099 17.3219 23.728 17.3554C23.646 17.389 23.5716 17.4385 23.509 17.5011C23.4464 17.5637 23.3969 17.6381 23.3634 17.72C23.3299 17.802 23.313 17.8897 23.3138 17.9783C23.3146 18.0668 23.3329 18.1543 23.3679 18.2356C23.4028 18.3169 23.4536 18.3905 23.5173 18.452L25.0506 19.9853C25.1066 20.0404 25.1635 20.0933 25.2213 20.144L25.2799 20.2027C25.4083 20.3283 25.5105 20.4782 25.5806 20.6436C25.6507 20.809 25.6873 20.9867 25.6883 21.1664C25.6892 21.346 25.6546 21.5241 25.5863 21.6902C25.518 21.8564 25.4174 22.0074 25.2904 22.1344C25.1633 22.2614 25.0124 22.362 24.8462 22.4303C24.68 22.4986 24.502 22.5333 24.3223 22.5323C24.1427 22.5314 23.965 22.4948 23.7996 22.4247C23.6342 22.3546 23.4843 22.2524 23.3586 22.124L23.132 21.8987C23.0379 21.8049 22.918 21.7413 22.7876 21.7161C22.6573 21.6909 22.5223 21.7053 22.4001 21.7573C22.2779 21.8093 22.1741 21.8966 22.1018 22.008C22.0296 22.1194 21.9922 22.2499 21.9946 22.3827C21.9927 22.4728 22.009 22.5624 22.0427 22.6461C22.0764 22.7297 22.1267 22.8057 22.1906 22.8693L22.4879 23.1667C22.6105 23.282 22.7086 23.4208 22.7765 23.5748C22.8444 23.7288 22.8807 23.8949 22.8832 24.0632C22.8857 24.2314 22.8545 24.3985 22.7912 24.5545C22.728 24.7105 22.6341 24.8521 22.5151 24.9711C22.3961 25.0901 22.2544 25.184 22.0984 25.2473C21.9425 25.3105 21.7754 25.3418 21.6071 25.3393C21.4388 25.3367 21.2728 25.3004 21.1188 25.2325C20.9648 25.1646 20.826 25.0665 20.7106 24.944H20.7093L20.6933 24.9267L20.4133 24.6467C20.3517 24.5843 20.2783 24.5348 20.1973 24.501C20.1164 24.4672 20.0296 24.4498 19.9419 24.4498C19.8543 24.4498 19.7675 24.4672 19.6866 24.501C19.6056 24.5348 19.5322 24.5843 19.4706 24.6467C19.3456 24.7717 19.2754 24.9412 19.2754 25.118C19.2754 25.2948 19.3456 25.4643 19.4706 25.5893L19.7613 25.8813C19.881 25.9995 19.9762 26.1401 20.0415 26.2951C20.1069 26.4501 20.141 26.6165 20.1421 26.7847C20.1431 26.9528 20.1111 27.1196 20.0477 27.2754C19.9843 27.4312 19.8908 27.573 19.7726 27.6927C19.6544 27.8123 19.5138 27.9076 19.3588 27.9729C19.2038 28.0382 19.0375 28.0724 18.8693 28.0735C18.7011 28.0745 18.5343 28.0424 18.3785 27.979C18.2227 27.9156 18.081 27.8222 17.9613 27.704L16.0533 25.8907L16.7533 25.1947C16.9891 24.9611 17.1762 24.6831 17.304 24.3768C17.4317 24.0705 17.4975 23.7419 17.4975 23.41C17.4975 23.0781 17.4317 22.7495 17.304 22.4432C17.1762 22.1369 16.9891 21.8589 16.7533 21.6253C16.5042 21.3771 16.2061 21.1835 15.8781 21.0568C15.55 20.9301 15.1992 20.873 14.8479 20.8893C14.8635 20.5395 14.8056 20.1902 14.6779 19.8641C14.5502 19.538 14.3556 19.2423 14.1066 18.996C13.8577 18.748 13.5598 18.5544 13.232 18.4277C12.9042 18.301 12.5537 18.2439 12.2026 18.26C12.218 17.9104 12.1599 17.5614 12.0323 17.2355C11.9046 16.9096 11.7101 16.6141 11.4613 16.368C11.1446 16.0533 10.7507 15.8275 10.3192 15.713C9.88765 15.5986 9.43363 15.5996 9.00262 15.716C8.92853 15.1673 8.67489 14.6587 8.28128 14.2693C7.84264 13.8346 7.26121 13.5736 6.64482 13.5349C6.02843 13.4961 5.41891 13.6822 4.92928 14.0587C4.6149 12.7069 4.65165 11.2972 5.03603 9.96361C5.42041 8.63006 6.13964 7.41705 7.12528 6.44Z" fill="#1A1A1A"/>
</svg>
