<svg width="50" height="26" viewBox="0 0 50 26" fill="none" xmlns="http://www.w3.org/2000/svg">
<g clip-path="url(#clip0_403_193)">
<path d="M0.0525818 24.9803C0.0525816 17.0442 0.0525816 9.10821 0.069938 1.15756C0.268503 0.945964 0.449712 0.748983 0.63092 0.552002C1.33313 0.552002 2.03533 0.552002 2.75666 0.569794C2.81465 0.633904 2.85039 0.683247 2.89284 0.726091C3.817 1.65888 4.74065 2.59216 5.66698 3.52285C6.89409 4.75573 8.12051 5.98931 9.35263 7.21729C10.4503 8.31127 11.5552 9.39818 12.6576 10.4875C12.7106 10.5399 12.7708 10.5851 12.8304 10.636C13.1951 10.3308 13.544 10.038 13.8938 9.74629C14.4147 9.31188 14.9363 8.87829 15.4575 8.44424C15.947 8.03664 16.4377 7.6305 16.9253 7.22077C17.4051 6.8176 17.8799 6.40852 18.3604 6.00614C18.7819 5.65315 19.2097 5.30751 19.6322 4.95561C20.1403 4.53234 20.6445 4.10437 21.1527 3.68122C21.6552 3.2629 22.1604 2.84786 22.6647 2.43171C23.1809 2.00577 23.7026 1.58618 24.2113 1.15172C24.4268 0.967719 24.6153 0.752845 24.816 0.552002C24.8721 0.552002 24.9282 0.552002 25.0146 0.566945C25.6707 1.0988 26.2981 1.61374 26.9216 2.13316C27.6255 2.71953 28.3239 3.3123 29.0284 3.89795C29.8716 4.59894 30.7202 5.29367 31.5637 5.99429C32.1621 6.49128 32.754 6.99584 33.3523 7.49291C34.189 8.18807 35.0293 8.87907 35.8674 9.5725C36.3102 9.93877 36.7517 10.3064 37.1957 10.6751C37.2681 10.6073 37.3201 10.5614 37.3689 10.5124C38.5662 9.31197 39.7629 8.1109 40.9603 6.91064C42.2808 5.58714 43.6004 4.26285 44.9233 2.94179C45.6562 2.20994 46.3958 1.48476 47.1297 0.753887C47.1863 0.697528 47.2211 0.619799 47.266 0.552002C47.9858 0.552002 48.7055 0.552002 49.44 0.569153C49.6541 0.765444 49.8533 0.944585 50.0526 1.12373C50.0526 1.16271 50.0526 1.20169 50.0364 1.26222C50.0309 1.31705 50.0418 1.35033 50.0526 1.3836C50.0526 9.14639 50.0526 16.9092 50.0366 24.6997C50.0313 24.7597 50.0419 24.792 50.0526 24.8244C50.0526 24.8633 50.0526 24.9023 50.035 24.9518C49.8364 25.1589 49.6553 25.3555 49.4742 25.552C33.2095 25.552 16.9447 25.552 0.665155 25.5349C0.550469 25.4398 0.445586 25.3673 0.351961 25.2826C0.246862 25.1876 0.151934 25.0815 0.0525818 24.9803ZM28.8625 22.9473C33.7267 22.948 38.5909 22.9487 43.4551 22.9491C43.4987 22.9491 43.5423 22.9432 43.6101 22.9392C43.6254 22.9308 43.6344 22.9181 43.6666 22.8823C44.8839 21.6757 46.1011 20.4691 47.3417 19.2544C47.3583 19.2446 47.364 19.2305 47.3652 19.1636C47.3652 14.2503 47.3652 9.33702 47.3652 4.36781C47.2637 4.45058 47.2086 4.48798 47.1625 4.53414C45.9211 5.77708 44.6808 7.02112 43.4399 8.26453C42.1067 9.60044 40.7726 10.9355 39.4396 12.2717C38.2789 13.4352 37.12 14.6005 35.959 15.7637C34.6012 17.124 33.243 18.484 31.8829 19.8421C30.8606 20.8628 29.8351 21.8804 28.7906 22.9074C28.7983 22.9188 28.8061 22.9303 28.8625 22.9473ZM21.2257 22.8684C20.0098 21.6483 18.7942 20.4279 17.5779 19.2081C16.3185 17.9452 15.0584 16.6829 13.7988 15.4202C12.57 14.1883 11.3414 12.9562 10.1126 11.7243C8.85313 10.4617 7.59648 9.19629 6.33301 7.9376C5.21013 6.81897 4.07967 5.70776 2.95222 4.59361C2.8856 4.52778 2.81595 4.46496 2.68489 4.34162C2.68489 4.525 2.68489 4.63303 2.68489 4.74106C2.68489 9.57323 2.68483 14.4054 2.68525 19.2376C2.68526 19.3327 2.6908 19.4278 2.69413 19.5479C2.70258 19.5636 2.71551 19.5736 2.74982 19.6082C3.80808 20.6551 4.86907 21.6993 5.92149 22.7519C6.06875 22.8992 6.21543 22.9548 6.42492 22.9545C11.2667 22.9485 16.1085 22.9499 20.9502 22.9495C21.0464 22.9495 21.1426 22.9445 21.2608 22.9417C21.2655 22.9362 21.2701 22.9306 21.2748 22.925C21.2638 22.9164 21.2527 22.9078 21.2257 22.8684ZM31.6168 16.2928C32.8462 15.0625 34.0756 13.8323 35.3143 12.5928C31.8685 9.7252 28.4381 6.8705 24.9795 3.99228C21.5671 6.83961 18.1481 9.69238 14.7091 12.5618C18.1531 16.0159 21.5831 19.456 25.041 22.9242C25.3863 22.5593 25.7108 22.2001 26.0526 21.858C27.8178 20.0909 29.5876 18.3282 31.3554 16.5637C31.4355 16.4838 31.5123 16.4006 31.6168 16.2928ZM47.3327 4.3241L47.3492 4.33329C47.3492 4.33329 47.3467 4.31452 47.3327 4.3241ZM2.72012 4.3259L2.70287 4.31831C2.70287 4.31831 2.70712 4.33677 2.72012 4.3259Z" fill="#EABD6C"/>
</g>
<defs>
<clipPath id="clip0_403_193">
<rect y="0.5" width="50" height="25" rx="2" fill="white"/>
</clipPath>
</defs>
</svg>
