<svg width="41" height="32" viewBox="0 0 41 32" fill="none" xmlns="http://www.w3.org/2000/svg">
<g clip-path="url(#clip0_42_1683)">
<path d="M33.1624 28H7.16241C6.61241 28 6.16241 28.45 6.16241 29V31C6.16241 31.55 6.61241 32 7.16241 32H33.1624C33.7124 32 34.1624 31.55 34.1624 31V29C34.1624 28.45 33.7124 28 33.1624 28ZM37.1624 8C35.5062 8 34.1624 9.34375 34.1624 11C34.1624 11.4437 34.2624 11.8563 34.4374 12.2375L29.9124 14.95C28.9499 15.525 27.7062 15.2 27.1499 14.225L22.0562 5.3125C22.7249 4.7625 23.1624 3.9375 23.1624 3C23.1624 1.34375 21.8187 0 20.1624 0C18.5062 0 17.1624 1.34375 17.1624 3C17.1624 3.9375 17.5999 4.7625 18.2687 5.3125L13.1749 14.225C12.6187 15.2 11.3687 15.525 10.4124 14.95L5.89366 12.2375C6.06241 11.8625 6.16866 11.4437 6.16866 11C6.16866 9.34375 4.82491 8 3.16866 8C1.51241 8 0.162415 9.34375 0.162415 11C0.162415 12.6562 1.50616 14 3.16241 14C3.32491 14 3.48741 13.975 3.64366 13.95L8.16241 26H32.1624L36.6812 13.95C36.8374 13.975 36.9999 14 37.1624 14C38.8187 14 40.1624 12.6562 40.1624 11C40.1624 9.34375 38.8187 8 37.1624 8Z" fill="#1A1A1A"/>
</g>
<defs>
<clipPath id="clip0_42_1683">
<rect width="40" height="32" fill="white" transform="translate(0.162415)"/>
</clipPath>
</defs>
</svg>
