<svg width="40" height="40" viewBox="0 0 40 40" fill="none" xmlns="http://www.w3.org/2000/svg">
<path d="M30.8333 5.83331L5.83331 30.8333L9.16665 34.1666L34.1666 9.16665M11.6666 6.66665C10.3406 6.66665 9.06879 7.19343 8.13111 8.13111C7.19343 9.06879 6.66665 10.3406 6.66665 11.6666C6.66665 12.9927 7.19343 14.2645 8.13111 15.2022C9.06879 16.1399 10.3406 16.6666 11.6666 16.6666C12.9927 16.6666 14.2645 16.1399 15.2022 15.2022C16.1399 14.2645 16.6666 12.9927 16.6666 11.6666C16.6666 10.3406 16.1399 9.06879 15.2022 8.13111C14.2645 7.19343 12.9927 6.66665 11.6666 6.66665ZM28.3333 23.3333C27.0072 23.3333 25.7355 23.8601 24.7978 24.7978C23.8601 25.7355 23.3333 27.0072 23.3333 28.3333C23.3333 29.6594 23.8601 30.9312 24.7978 31.8688C25.7355 32.8065 27.0072 33.3333 28.3333 33.3333C29.6594 33.3333 30.9312 32.8065 31.8688 31.8688C32.8065 30.9312 33.3333 29.6594 33.3333 28.3333C33.3333 27.0072 32.8065 25.7355 31.8688 24.7978C30.9312 23.8601 29.6594 23.3333 28.3333 23.3333Z" fill="#1A1A1A"/>
</svg>
