<svg width="32" height="32" viewBox="0 0 32 32" fill="none" xmlns="http://www.w3.org/2000/svg">
<g clip-path="url(#clip0_333_601)">
<path fill-rule="evenodd" clip-rule="evenodd" d="M22.8503 0.502857C23.0902 0.262189 23.3963 0.0982761 23.7296 0.0319384C24.0629 -0.0343993 24.4085 -0.00016754 24.7223 0.130285L29.584 2.14629C30.0032 2.3194 30.3368 2.65163 30.5116 3.0702C30.6864 3.48877 30.6882 3.95955 30.5166 4.37943L28.5303 9.24114C28.4019 9.55508 28.1834 9.8239 27.9022 10.0136C27.6211 10.2033 27.29 10.3053 26.9509 10.3068C26.6117 10.3082 26.2797 10.2091 25.997 10.0218C25.7142 9.83459 25.4933 9.56767 25.3623 9.25486L24.5783 7.38057L4.83427 15.8171C4.62716 15.9057 4.40463 15.9526 4.1794 15.9551C3.95416 15.9577 3.73063 15.9158 3.52157 15.832C3.3125 15.7482 3.122 15.624 2.96093 15.4665C2.79986 15.309 2.67139 15.1214 2.58284 14.9143C2.49429 14.7072 2.4474 14.4846 2.44485 14.2594C2.44231 14.0342 2.48414 13.8106 2.56798 13.6016C2.65182 13.3925 2.77602 13.202 2.93348 13.0409C3.09094 12.8799 3.27858 12.7514 3.4857 12.6629L23.2548 4.21714L22.4846 2.37714C22.3528 2.06368 22.3171 1.71811 22.3823 1.38436C22.4474 1.05061 22.6103 0.743773 22.8503 0.502857ZM29.1428 12.5257C29.7491 12.5257 30.3304 12.7665 30.7591 13.1952C31.1877 13.6238 31.4286 14.2052 31.4286 14.8114V30.8114C31.4286 31.1145 31.3081 31.4052 31.0938 31.6196C30.8795 31.8339 30.5888 31.9543 30.2857 31.9543H24.5714C24.2683 31.9543 23.9776 31.8339 23.7633 31.6196C23.549 31.4052 23.4286 31.1145 23.4286 30.8114V14.8114C23.4286 14.2052 23.6694 13.6238 24.098 13.1952C24.5267 12.7665 25.1081 12.5257 25.7143 12.5257H29.1428ZM19.3303 16.6217C18.9013 16.1939 18.3201 15.9538 17.7143 15.9543H14.2857C13.6795 15.9543 13.0981 16.1951 12.6695 16.6238C12.2408 17.0524 12 17.6338 12 18.24V30.8114C12 31.1145 12.1204 31.4052 12.3347 31.6196C12.549 31.8339 12.8397 31.9543 13.1428 31.9543H18.8571C19.1602 31.9543 19.4509 31.8339 19.6652 31.6196C19.8796 31.4052 20 31.1145 20 30.8114V18.24C20.0002 17.9395 19.9412 17.6419 19.8263 17.3642C19.7114 17.0865 19.5428 16.8342 19.3303 16.6217ZM6.2857 19.3829C6.89191 19.3829 7.47329 19.6237 7.90194 20.0523C8.3306 20.481 8.57141 21.0624 8.57141 21.6686V30.8114C8.57141 31.1145 8.451 31.4052 8.23668 31.6196C8.02235 31.8339 7.73166 31.9543 7.42855 31.9543H1.71427C1.41116 31.9543 1.12047 31.8339 0.906146 31.6196C0.691819 31.4052 0.571411 31.1145 0.571411 30.8114V21.6686C0.571411 21.0624 0.812227 20.481 1.24088 20.0523C1.66954 19.6237 2.25092 19.3829 2.85713 19.3829H6.2857Z" fill="#1A1A1A"/>
</g>
<defs>
<clipPath id="clip0_333_601">
<rect width="32" height="32" fill="white"/>
</clipPath>
</defs>
</svg>
