<svg width="24" height="24" viewBox="0 0 24 24" fill="none" xmlns="http://www.w3.org/2000/svg">
<path d="M12.007 5.83708C8.60191 5.83708 5.83936 8.59856 5.83936 12.0023C5.83936 15.4061 8.60191 18.1676 12.007 18.1676C15.4122 18.1676 18.1747 15.4061 18.1747 12.0023C18.1747 8.59856 15.4122 5.83708 12.007 5.83708ZM12.007 16.0016C9.79792 16.0016 8.00625 14.2106 8.00625 12.0023C8.00625 9.7941 9.79792 8.00313 12.007 8.00313C14.2161 8.00313 16.0078 9.7941 16.0078 12.0023C16.0078 14.2106 14.2161 16.0016 12.007 16.0016Z" fill="white"/>
<path d="M19.8586 5.59328C19.8586 6.3882 19.2139 7.03262 18.4187 7.03262C17.6234 7.03262 16.9788 6.3882 16.9788 5.59328C16.9788 4.79836 17.6234 4.15394 18.4187 4.15394C19.2139 4.15394 19.8586 4.79836 19.8586 5.59328Z" fill="white"/>
<path d="M12.007 2.16136C15.2152 2.16136 15.5951 2.17542 16.8568 2.23169C18.0293 2.28326 18.6625 2.48017 19.0846 2.64427C19.6428 2.85993 20.0461 3.12248 20.4636 3.53975C20.8857 3.96171 21.1436 4.36023 21.3641 4.91815C21.5282 5.34011 21.7252 5.97773 21.7768 7.14514C21.8331 8.41102 21.8472 8.79078 21.8472 11.993C21.8472 15.1952 21.8331 15.5796 21.7768 16.8408C21.7252 18.0129 21.5282 18.6458 21.3641 19.0678C21.1483 19.6257 20.8857 20.0289 20.4682 20.4462C20.0461 20.8681 19.6474 21.126 19.0893 21.3464C18.6672 21.5105 18.0293 21.7074 16.8614 21.7589C15.5951 21.8152 15.2152 21.8293 12.0117 21.8293C8.80829 21.8293 8.42369 21.8152 7.16201 21.7589C5.98945 21.7074 5.35626 21.5105 4.93414 21.3464C4.376 21.1307 3.97264 20.8681 3.55521 20.4509C3.13309 20.0289 2.87512 19.6304 2.65468 19.0725C2.49052 18.6505 2.29353 18.0129 2.24194 16.8455C2.18566 15.5796 2.17158 15.1998 2.17158 11.9977C2.17158 8.79547 2.18566 8.41102 2.24194 7.14983C2.29353 5.97773 2.49052 5.34479 2.65468 4.92284C2.87043 4.36491 3.13309 3.96171 3.55052 3.54444C3.97264 3.12248 4.37131 2.86462 4.92945 2.64427C5.35157 2.48017 5.98945 2.28326 7.15732 2.23169C8.41899 2.17542 8.79891 2.16136 12.007 2.16136ZM12.007 0C8.74731 0 8.33926 0.0140652 7.05882 0.0703262C5.78308 0.126587 4.906 0.332878 4.14618 0.628248C3.35353 0.937683 2.68282 1.34558 2.01681 2.01602C1.3461 2.68177 0.93805 3.35222 0.628493 4.13987C0.333008 4.90408 0.126637 5.77613 0.0703537 7.05138C0.0140707 8.336 0 8.7439 0 12.0023C0 15.2608 0.0140707 15.6687 0.0703537 16.9486C0.126637 18.2239 0.333008 19.1006 0.628493 19.8601C0.93805 20.6525 1.3461 21.3229 2.01681 21.9887C2.68282 22.6544 3.35353 23.067 4.14149 23.3718C4.906 23.6671 5.77839 23.8734 7.05413 23.9297C8.33457 23.9859 8.74262 24 12.0023 24C15.2621 24 15.6701 23.9859 16.9506 23.9297C18.2263 23.8734 19.1034 23.6671 19.8632 23.3718C20.6512 23.067 21.3219 22.6544 21.9879 21.9887C22.6539 21.3229 23.0666 20.6525 23.3715 19.8648C23.667 19.1006 23.8734 18.2286 23.9296 16.9533C23.9859 15.6734 24 15.2655 24 12.007C24 8.74858 23.9859 8.34069 23.9296 7.06075C23.8734 5.7855 23.667 4.90877 23.3715 4.14925C23.076 3.35222 22.668 2.68177 21.9973 2.01602C21.3312 1.35026 20.6605 0.937683 19.8726 0.632936C19.1081 0.337566 18.2357 0.131276 16.9599 0.0750147C15.6748 0.0140652 15.2668 0 12.007 0Z" fill="white"/>
</svg>
