<svg width="32" height="32" viewBox="0 0 32 32" fill="none" xmlns="http://www.w3.org/2000/svg">
<path fill-rule="evenodd" clip-rule="evenodd" d="M16 21.3333C18.4753 21.3333 20.8493 20.35 22.5996 18.5997C24.35 16.8493 25.3333 14.4754 25.3333 12C25.3333 9.52465 24.35 7.15068 22.5996 5.40034C20.8493 3.65 18.4753 2.66667 16 2.66667C13.5246 2.66667 11.1506 3.65 9.4003 5.40034C7.64996 7.15068 6.66663 9.52465 6.66663 12C6.66663 14.4754 7.64996 16.8493 9.4003 18.5997C11.1506 20.35 13.5246 21.3333 16 21.3333ZM16 8.00001C15.6213 8.00001 15.368 8.45334 14.8613 9.364L14.7306 9.59867C14.5866 9.85734 14.5146 9.98534 14.4026 10.0707C14.2893 10.156 14.1493 10.188 13.8693 10.2507L13.616 10.3093C12.632 10.532 12.14 10.6427 12.0226 11.0187C11.9053 11.3947 12.2413 11.788 12.912 12.572L13.0853 12.7747C13.276 12.9973 13.372 13.108 13.4146 13.2467C13.4573 13.3853 13.4426 13.5333 13.4146 13.8307L13.388 14.1013C13.2866 15.148 13.236 15.672 13.5413 15.904C13.848 16.136 14.3093 15.924 15.2306 15.5L15.468 15.3907C15.7306 15.2707 15.8613 15.2107 16 15.2107C16.1386 15.2107 16.2693 15.2707 16.532 15.3907L16.7693 15.5C17.6906 15.9253 18.152 16.136 18.4586 15.904C18.7653 15.672 18.7133 15.148 18.612 14.1013L18.5853 13.8307C18.5573 13.5333 18.5426 13.3853 18.5853 13.2467C18.628 13.108 18.724 12.9973 18.9146 12.7747L19.088 12.572C19.7586 11.788 20.0946 11.396 19.9773 11.0187C19.86 10.6427 19.368 10.532 18.384 10.3093L18.1306 10.2507C17.8506 10.188 17.7106 10.1573 17.5973 10.0707C17.4853 9.98534 17.4133 9.85734 17.2693 9.59867L17.1386 9.364C16.632 8.45334 16.3786 8.00001 16 8.00001Z" fill="#1A1A1A"/>
<path d="M5.99336 17.3267L3.98936 19.4C3.26936 20.1467 2.90936 20.5187 2.78403 20.8347C2.50003 21.5547 2.74403 22.352 3.36136 22.7307C3.63336 22.896 4.12136 22.948 5.10136 23.0507C5.65336 23.1093 5.9307 23.1387 6.16136 23.228C6.68003 23.4267 7.08136 23.844 7.2747 24.38C7.36003 24.62 7.38803 24.9053 7.44403 25.4773C7.54403 26.4907 7.5947 26.9973 7.7547 27.2787C8.12003 27.9187 8.89203 28.1707 9.5867 27.876C9.8907 27.748 10.2507 27.3747 10.972 26.6293L14.2814 23.2027C12.5378 22.9355 10.8807 22.2651 9.44183 21.2448C8.003 20.2245 6.82218 18.8837 5.99336 17.3267ZM17.72 23.204L21.0294 26.6307C21.7494 27.3773 22.1094 27.7493 22.4134 27.8787C23.108 28.172 23.88 27.92 24.2454 27.28C24.4054 27 24.4547 26.4933 24.5547 25.48C24.612 24.9067 24.64 24.6213 24.7254 24.3813C24.9174 23.8453 25.32 23.428 25.8387 23.2293C26.0694 23.14 26.3454 23.112 26.8987 23.0533C27.8774 22.9493 28.3667 22.8973 28.6387 22.732C29.256 22.3533 29.5 21.5547 29.216 20.836C29.0907 20.52 28.7307 20.1467 28.0107 19.4013L26.0067 17.3267C25.1779 18.8837 23.9971 20.2258 22.5582 21.2461C21.1194 22.2665 19.4623 22.9369 17.7187 23.204" fill="#1A1A1A"/>
</svg>
