<svg width="32" height="32" viewBox="0 0 32 32" fill="none" xmlns="http://www.w3.org/2000/svg">
<path d="M26.6666 9.33333V6.66667C26.6666 5.196 25.4706 4 24 4H6.66663C4.46129 4 2.66663 5.79467 2.66663 8V24C2.66663 26.9347 5.05863 28 6.66663 28H26.6666C28.1373 28 29.3333 26.804 29.3333 25.3333V12C29.3333 10.5293 28.1373 9.33333 26.6666 9.33333ZM24 21.3333H21.3333V16H24V21.3333ZM6.66663 9.33333C6.32332 9.31798 5.99917 9.17079 5.76166 8.92242C5.52416 8.67406 5.3916 8.34365 5.3916 8C5.3916 7.65635 5.52416 7.32594 5.76166 7.07758C5.99917 6.82921 6.32332 6.68202 6.66663 6.66667H24V9.33333H6.66663Z" fill="#1A1A1A"/>
</svg>
